# xmcd
# 
# Track frame offsets:
#     183
#     15585
#     30943
#     50513
#     68463
#     85438
#     104883
#     124288
#     144493
#     162815
#     177923
#     199945
# 
# Disc length: 2780
# 
# Revision: 3
# Processed by: cddbd v1.5.2PL0 Copyright (c) Steve Scherf et al.
# Submitted via: BonkEnc v1.0
# 
DISCID=a10ada0c
DTITLE=Various Artist - Geração Pop
DYEAR=0
DGENRE=Other
TTITLE0=Maluco Beleza
TTITLE1=Com Onda
TTITLE2=Como Eu Quero
TTITLE3=Bete Balanço
TTITLE4=Deixa Chover
TTITLE5=Paralelas
TTITLE6=Não Existe Pecado Ao Sul do Equador
TTITLE7=Menino do Rio
TTITLE8=Eu Tambem Quero Beijar
TTITLE9=Mistério da Raça
TTITLE10=Agonia
TTITLE11=Flores Em Você
EXTD=
EXTT0=
EXTT1=
EXTT2=
EXTT3=
EXTT4=
EXTT5=
EXTT6=
EXTT7=
EXTT8=
EXTT9=
EXTT10=
EXTT11=
PLAYORDER=
